<svg version="1.1" id="Layer_1" xmlns="http://www.w3.org/2000/svg" xmlns:xlink="http://www.w3.org/1999/xlink" x="0px" y="0px"
	 width="100%" viewBox="0 0 500 500" enable-background="new 0 0 500 500" xml:space="preserve">
<path fill="#051A37" opacity="1.000000" stroke="none" 
	d="
M1.000000,186.000000 
	C1.000000,124.015358 1.000000,62.530712 1.000000,1.023033 
	C167.609695,1.023033 334.219391,1.023033 500.914551,1.023033 
	C500.914551,167.568039 500.914551,334.136139 500.914551,500.852112 
	C334.333435,500.852112 167.666733,500.852112 1.000000,500.852112 
	C1.000000,396.113800 1.000000,291.306915 1.000000,186.000000 
M34.866177,298.713257 
	C36.454193,304.825226 37.787453,311.016785 39.667683,317.037506 
	C80.914635,449.114868 231.216293,511.396759 353.798981,447.252014 
	C442.738007,400.712219 489.236115,300.129028 466.978851,202.404755 
	C441.517456,90.611862 335.529724,14.601958 217.321609,32.410568 
	C159.732361,41.086666 112.386627,69.163460 76.638893,115.199715 
	C34.561062,169.387909 21.332764,230.716476 34.866177,298.713257 
z"/>
<path fill="#FBB6B6" opacity="1.000000" stroke="none" 
	d="
M34.768288,298.302917 
	C21.332764,230.716476 34.561062,169.387909 76.638893,115.199715 
	C112.386627,69.163460 159.732361,41.086666 217.321609,32.410568 
	C335.529724,14.601958 441.517456,90.611862 466.978851,202.404755 
	C489.236115,300.129028 442.738007,400.712219 353.798981,447.252014 
	C231.216293,511.396759 80.914635,449.114868 39.667683,317.037506 
	C37.787453,311.016785 36.454193,304.825226 34.768288,298.302917 
M364.048218,425.583649 
	C373.366028,418.334534 383.402649,411.836212 391.885162,403.714661 
	C447.526245,350.441559 469.056915,285.403992 454.440704,209.892609 
	C437.118378,120.400871 362.232178,53.109085 271.800140,44.286114 
	C222.759064,39.501434 177.231598,50.691853 135.975479,78.026588 
	C65.538139,124.695679 30.454538,209.651443 47.339012,292.438904 
	C65.153969,379.788666 135.273819,445.429108 224.170380,457.157043 
	C274.228699,463.761108 320.751099,453.053650 364.048218,425.583649 
z"/>
<path fill="#061B38" opacity="1.000000" stroke="none" 
	d="
M363.744598,425.782501 
	C320.751099,453.053650 274.228699,463.761108 224.170380,457.157043 
	C135.273819,445.429108 65.153969,379.788666 47.339012,292.438904 
	C30.454538,209.651443 65.538139,124.695679 135.975479,78.026588 
	C177.231598,50.691853 222.759064,39.501434 271.800140,44.286114 
	C362.232178,53.109085 437.118378,120.400871 454.440704,209.892609 
	C469.056915,285.403992 447.526245,350.441559 391.885162,403.714661 
	C383.402649,411.836212 373.366028,418.334534 363.744598,425.782501 
M162.081787,201.387878 
	C165.461288,208.423645 168.754944,215.502350 172.246063,222.482285 
	C175.321274,228.630630 177.046982,229.022629 183.164932,225.413239 
	C189.972351,221.397064 196.770554,217.365234 203.583557,213.333817 
	C211.013809,227.172607 218.877197,227.713577 228.259872,225.292023 
	C238.952866,222.532318 241.212463,214.683441 234.319519,206.096970 
	C231.750717,202.897034 228.983780,199.856171 226.161407,196.573151 
	C228.310211,195.214615 229.972366,194.117477 231.678146,193.092987 
	C241.233170,187.354248 250.805435,181.644180 260.357025,175.899734 
	C263.663574,173.911133 265.539520,172.130753 262.557159,167.745865 
	C248.054092,146.422394 233.838638,124.899971 219.800201,103.267052 
	C217.424377,99.605965 215.689377,99.644798 212.392426,101.707420 
	C202.542618,107.869637 192.522629,113.759811 182.453888,119.825638 
	C180.790405,116.876595 179.411316,114.017723 177.648193,111.419449 
	C175.789536,108.680367 173.784363,105.970589 171.455383,103.634682 
	C165.786316,97.948792 160.935379,96.910309 155.387360,99.771225 
	C150.115906,102.489532 147.813309,107.745659 149.328979,115.200272 
	C150.342529,120.185242 152.131256,125.012596 153.699631,130.340347 
	C147.406311,134.031235 140.862701,137.933517 134.252762,141.719955 
	C130.606201,143.808868 129.999023,146.583237 132.017593,150.077209 
	C134.846420,154.973694 137.702362,159.855072 140.600266,164.710953 
	C143.744156,169.979019 145.920807,170.062195 150.992737,166.629791 
	C154.602448,164.186981 158.708466,161.881836 162.901047,161.028168 
	C170.161835,159.549774 178.594696,165.054184 181.762985,172.208420 
	C184.313278,177.967148 182.480942,183.532974 175.736893,189.124039 
	C172.813904,191.547318 169.291916,193.239395 166.301239,195.593018 
	C164.610550,196.923569 163.445969,198.922623 162.081787,201.387878 
M258.498962,287.011292 
	C257.459808,296.413940 262.720276,306.015961 270.551331,309.010742 
	C277.388702,311.625549 286.814728,308.405640 291.895721,300.964478 
	C300.112427,288.930969 291.523529,280.646240 284.483948,271.894348 
	C294.036041,265.001862 303.441742,258.214966 313.125610,251.227386 
	C307.293976,241.721634 301.600555,232.441162 296.592072,224.277130 
	C287.995850,227.238495 280.352448,230.537018 272.375763,232.434616 
	C264.207642,234.377731 258.148743,229.937073 255.897751,221.777451 
	C253.266190,212.238266 257.996704,205.309464 264.442047,199.325851 
	C268.056671,195.970169 272.328583,193.322510 276.510315,190.202179 
	C273.323944,184.816147 270.129944,179.417236 267.328613,174.682053 
	C254.801910,182.276840 242.649246,189.644852 230.299118,197.132584 
	C233.006927,200.409637 235.482712,203.116867 237.632492,206.062057 
	C243.941864,214.705887 241.001709,224.092148 230.785355,227.395844 
	C227.531952,228.447891 223.938065,228.938416 220.514771,228.875854 
	C212.281448,228.725388 206.771835,223.814560 202.658905,217.229218 
	C194.189667,222.068253 186.065872,226.709915 177.628601,231.530701 
	C193.026199,254.694321 208.828156,278.466248 224.778748,302.461761 
	C226.709335,301.551636 228.343155,300.803528 229.958038,300.016541 
	C239.336746,295.446106 248.710983,290.866486 258.498962,287.011292 
M308.940369,168.668488 
	C300.744843,173.038162 294.309998,169.429626 288.067627,164.270828 
	C286.811432,163.232666 284.354065,162.110275 283.276459,162.656418 
	C278.279938,165.188614 273.574371,168.294861 268.642578,171.269150 
	C272.717163,178.261276 276.546265,184.832199 280.491547,191.602432 
	C278.860718,192.530212 277.558624,193.219986 276.306915,193.991531 
	C269.162994,198.395050 262.256348,203.070663 258.972260,211.308929 
	C256.823151,216.700073 257.496765,221.934311 261.133606,226.362503 
	C264.620575,230.608307 269.602570,230.989304 274.412811,229.304153 
	C282.008392,226.643219 289.424957,223.471222 297.361420,220.340332 
	C303.447296,230.192627 309.880249,240.606812 316.427551,251.206131 
	C333.350159,239.489868 349.849457,227.936569 366.509583,216.620087 
	C370.880829,213.650909 371.940155,210.507050 369.716553,205.667511 
	C366.633575,198.957642 364.014099,192.034805 361.419403,185.744324 
	C366.733429,182.629807 371.604767,180.118042 376.089203,177.042267 
	C379.961945,174.386063 382.238312,170.437256 381.949677,165.533722 
	C381.295380,154.419586 367.598480,143.857285 356.883942,146.866241 
	C350.673584,148.610275 344.932434,152.025131 338.662781,154.830078 
	C334.796082,148.349152 330.486603,141.126053 326.104645,133.781525 
	C320.735687,136.928940 315.903229,139.761841 311.106476,142.573822 
	C317.941406,156.994568 317.647034,161.255234 308.940369,168.668488 
M298.392181,167.432968 
	C308.598663,169.274475 315.544067,161.645065 312.231384,151.970398 
	C311.028412,148.457138 309.016724,145.220779 307.280487,141.666519 
	C312.543976,138.523911 317.696198,135.148743 323.129120,132.310959 
	C326.650055,130.471863 326.555908,128.843018 324.579651,125.782646 
	C317.811462,115.301521 311.510254,104.517281 304.680267,94.078110 
	C298.396149,84.473305 291.643372,75.175713 285.132843,65.718140 
	C283.358490,63.140598 281.686829,62.399155 278.581085,64.267159 
	C260.336395,75.240814 241.986435,86.041809 223.571793,96.728378 
	C220.564056,98.473846 220.536423,99.844177 222.331314,102.530693 
	C236.383102,123.562973 250.359665,144.646179 264.216583,165.807205 
	C266.102753,168.687576 267.758484,168.556717 270.308594,166.983322 
	C275.366394,163.862717 280.546387,160.940170 284.876923,158.403717 
	C289.529388,161.589142 293.593903,164.371994 298.392181,167.432968 
M333.598236,377.947144 
	C333.406036,384.602234 333.443146,391.274658 332.941559,397.906342 
	C332.604095,402.368286 334.450348,403.277863 338.428772,402.980164 
	C348.053680,402.259949 357.704926,401.900391 367.338562,401.285889 
	C378.542938,400.571198 378.373474,400.519836 378.417755,389.396301 
	C378.433960,385.324280 377.025269,384.341461 373.141968,384.507050 
	C365.550079,384.830811 357.934570,384.602112 350.035095,384.602112 
	C350.253113,382.127411 350.465515,379.716614 350.683228,377.245209 
	C355.997955,376.493530 360.920074,375.731934 365.860046,375.113037 
	C374.661255,374.010376 374.543182,373.013275 373.361908,364.084717 
	C372.631287,358.561981 369.770782,360.246033 367.176086,360.292603 
	C361.894958,360.387451 356.620453,360.851135 350.947968,361.186218 
	C351.306702,358.166382 351.592773,355.757904 351.898834,353.181458 
	C358.064270,352.473694 363.988464,351.695343 369.933014,351.131317 
	C383.005096,349.891052 380.280853,351.308411 380.965546,338.970825 
	C381.161987,335.430908 379.904388,334.284729 376.370270,334.487061 
	C364.572815,335.162598 352.764557,335.713959 340.952881,336.038361 
	C337.231964,336.140533 336.144714,337.657104 335.962433,341.145844 
	C335.337402,353.108459 334.446716,365.057220 333.598236,377.947144 
M173.381546,361.896118 
	C173.261505,370.374084 172.783798,378.867004 173.137589,387.325165 
	C173.407791,393.784637 176.072479,399.358063 182.808975,401.716400 
	C200.535431,407.922180 216.966537,398.031464 218.940140,379.449585 
	C220.079605,368.721344 220.014893,357.864044 220.460144,347.063507 
	C221.018356,333.522919 223.091522,335.525360 208.387177,335.329010 
	C205.930511,335.296234 204.740311,336.177979 204.681503,338.782898 
	C204.583908,343.106934 204.282288,347.428070 203.996597,351.745789 
	C203.392578,360.874573 203.013596,370.032623 201.929642,379.105469 
	C201.645615,381.482910 199.611511,384.563690 197.518936,385.631104 
	C192.481033,388.200806 188.923553,385.201294 189.194946,378.502228 
	C189.619141,368.031738 190.465576,357.573456 191.339615,347.127289 
	C192.510605,333.132172 193.869934,335.644287 179.780472,335.323975 
	C177.025253,335.261322 176.057175,336.439758 175.828857,339.146149 
	C175.213669,346.438293 174.310471,353.706146 173.381546,361.896118 
M271.981415,382.963501 
	C271.080780,379.427277 268.807770,381.121704 266.850494,381.618317 
	C261.733032,382.916809 256.615936,384.216705 251.498672,385.516052 
	C257.976349,373.722137 264.960510,363.234314 271.938202,352.742218 
	C274.735962,348.535278 276.569916,344.013397 273.840271,339.215637 
	C271.010437,334.241791 265.836823,334.218903 261.012085,334.581635 
	C255.388870,335.004395 249.803345,335.985840 244.216782,336.826782 
	C230.773132,338.850372 230.862152,338.872955 231.085449,352.497772 
	C231.141418,355.912750 232.192688,356.960327 235.564102,356.140015 
	C240.535736,354.930359 245.582504,354.029388 251.496582,352.811768 
	C248.699783,356.929108 246.323868,360.285583 244.095322,363.737244 
	C239.595428,370.706940 234.493698,377.396362 230.886108,384.807892 
	C225.760483,395.338074 230.475113,402.670197 242.229004,402.812347 
	C248.978333,402.893982 255.881088,402.110931 262.474426,400.639893 
	C273.809845,398.110840 271.442078,399.900543 271.920197,389.366333 
	C272.003113,387.539337 271.964539,385.706818 271.981415,382.963501 
M115.325264,397.568665 
	C115.480133,399.685333 114.064407,402.725250 117.819931,402.932007 
	C122.096321,403.167450 126.395630,402.986450 131.088974,402.986450 
	C131.463623,396.187408 131.807068,389.954590 132.156372,383.615662 
	C134.030441,383.306396 135.516449,383.170715 136.944641,382.807587 
	C145.931427,380.522491 154.869217,378.437347 160.262848,369.485596 
	C164.085602,363.140961 164.310135,350.364899 159.730820,343.166473 
	C154.965576,335.675781 147.843079,334.061310 139.670624,335.507782 
	C134.102402,336.493347 128.611374,338.008331 123.013382,338.701294 
	C118.994423,339.198761 117.926514,340.924652 117.788872,344.793732 
	C117.173439,362.093719 116.225906,379.381866 115.325264,397.568665 
M301.210297,376.795105 
	C301.766510,366.815704 302.407837,356.840149 302.857147,346.855927 
	C303.408142,334.612549 303.334076,334.759613 291.259674,334.383148 
	C287.399841,334.262878 286.337524,335.758820 286.256958,339.249481 
	C286.099426,346.077301 285.662140,352.898499 285.355988,359.723114 
	C284.773499,372.707031 284.210327,385.691833 283.617432,398.675293 
	C283.512482,400.974182 283.371033,403.163788 286.728485,402.986755 
	C299.332031,402.322083 311.937561,401.695007 325.013397,401.029877 
	C325.013397,394.821442 325.013397,389.117188 325.013397,383.003540 
	C316.882538,383.003540 309.118805,383.003540 301.162994,383.003540 
	C301.162994,380.972504 301.162994,379.344788 301.210297,376.795105 
z"/>
<path fill="#EE9797" opacity="1.000000" stroke="none" 
	d="
M162.063110,201.004227 
	C163.445969,198.922623 164.610550,196.923569 166.301239,195.593018 
	C169.291916,193.239395 172.813904,191.547318 175.736893,189.124039 
	C182.480942,183.532974 184.313278,177.967148 181.762985,172.208420 
	C178.594696,165.054184 170.161835,159.549774 162.901047,161.028168 
	C158.708466,161.881836 154.602448,164.186981 150.992737,166.629791 
	C145.920807,170.062195 143.744156,169.979019 140.600266,164.710953 
	C137.702362,159.855072 134.846420,154.973694 132.017593,150.077209 
	C129.999023,146.583237 130.606201,143.808868 134.252762,141.719955 
	C140.862701,137.933517 147.406311,134.031235 153.699631,130.340347 
	C152.131256,125.012596 150.342529,120.185242 149.328979,115.200272 
	C147.813309,107.745659 150.115906,102.489532 155.387360,99.771225 
	C160.935379,96.910309 165.786316,97.948792 171.455383,103.634682 
	C173.784363,105.970589 175.789536,108.680367 177.648193,111.419449 
	C179.411316,114.017723 180.790405,116.876595 182.453888,119.825638 
	C192.522629,113.759811 202.542618,107.869637 212.392426,101.707420 
	C215.689377,99.644798 217.424377,99.605965 219.800201,103.267052 
	C233.838638,124.899971 248.054092,146.422394 262.557159,167.745865 
	C265.539520,172.130753 263.663574,173.911133 260.357025,175.899734 
	C250.805435,181.644180 241.233170,187.354248 231.678146,193.092987 
	C229.972366,194.117477 228.310211,195.214615 226.161407,196.573151 
	C228.983780,199.856171 231.750717,202.897034 234.319519,206.096970 
	C241.212463,214.683441 238.952866,222.532318 228.259872,225.292023 
	C218.877197,227.713577 211.013809,227.172607 203.583557,213.333817 
	C196.770554,217.365234 189.972351,221.397064 183.164932,225.413239 
	C177.046982,229.022629 175.321274,228.630630 172.246063,222.482285 
	C168.754944,215.502350 165.461288,208.423645 162.063110,201.004227 
z"/>
<path fill="#FDB8B7" opacity="1.000000" stroke="none" 
	d="
M258.292847,286.650635 
	C248.710983,290.866486 239.336746,295.446106 229.958038,300.016541 
	C228.343155,300.803528 226.709335,301.551636 224.778748,302.461761 
	C208.828156,278.466248 193.026199,254.694321 177.628601,231.530701 
	C186.065872,226.709915 194.189667,222.068253 202.658905,217.229218 
	C206.771835,223.814560 212.281448,228.725388 220.514771,228.875854 
	C223.938065,228.938416 227.531952,228.447891 230.785355,227.395844 
	C241.001709,224.092148 243.941864,214.705887 237.632492,206.062057 
	C235.482712,203.116867 233.006927,200.409637 230.299118,197.132584 
	C242.649246,189.644852 254.801910,182.276840 267.328613,174.682053 
	C270.129944,179.417236 273.323944,184.816147 276.510315,190.202179 
	C272.328583,193.322510 268.056671,195.970169 264.442047,199.325851 
	C257.996704,205.309464 253.266190,212.238266 255.897751,221.777451 
	C258.148743,229.937073 264.207642,234.377731 272.375763,232.434616 
	C280.352448,230.537018 287.995850,227.238495 296.592072,224.277130 
	C301.600555,232.441162 307.293976,241.721634 313.125610,251.227386 
	C303.441742,258.214966 294.036041,265.001862 284.483948,271.894348 
	C291.523529,280.646240 300.112427,288.930969 291.895721,300.964478 
	C286.814728,308.405640 277.388702,311.625549 270.551331,309.010742 
	C262.720276,306.015961 257.459808,296.413940 258.292847,286.650635 
z"/>
<path fill="#ED9797" opacity="1.000000" stroke="none" 
	d="
M309.242065,168.446518 
	C317.647034,161.255234 317.941406,156.994568 311.106476,142.573822 
	C315.903229,139.761841 320.735687,136.928940 326.104645,133.781525 
	C330.486603,141.126053 334.796082,148.349152 338.662781,154.830078 
	C344.932434,152.025131 350.673584,148.610275 356.883942,146.866241 
	C367.598480,143.857285 381.295380,154.419586 381.949677,165.533722 
	C382.238312,170.437256 379.961945,174.386063 376.089203,177.042267 
	C371.604767,180.118042 366.733429,182.629807 361.419403,185.744324 
	C364.014099,192.034805 366.633575,198.957642 369.716553,205.667511 
	C371.940155,210.507050 370.880829,213.650909 366.509583,216.620087 
	C349.849457,227.936569 333.350159,239.489868 316.427551,251.206131 
	C309.880249,240.606812 303.447296,230.192627 297.361420,220.340332 
	C289.424957,223.471222 282.008392,226.643219 274.412811,229.304153 
	C269.602570,230.989304 264.620575,230.608307 261.133606,226.362503 
	C257.496765,221.934311 256.823151,216.700073 258.972260,211.308929 
	C262.256348,203.070663 269.162994,198.395050 276.306915,193.991531 
	C277.558624,193.219986 278.860718,192.530212 280.491547,191.602432 
	C276.546265,184.832199 272.717163,178.261276 268.642578,171.269150 
	C273.574371,168.294861 278.279938,165.188614 283.276459,162.656418 
	C284.354065,162.110275 286.811432,163.232666 288.067627,164.270828 
	C294.309998,169.429626 300.744843,173.038162 309.242065,168.446518 
z"/>
<path fill="#FEB8B7" opacity="1.000000" stroke="none" 
	d="
M298.025269,167.293915 
	C293.593903,164.371994 289.529388,161.589142 284.876923,158.403717 
	C280.546387,160.940170 275.366394,163.862717 270.308594,166.983322 
	C267.758484,168.556717 266.102753,168.687576 264.216583,165.807205 
	C250.359665,144.646179 236.383102,123.562973 222.331314,102.530693 
	C220.536423,99.844177 220.564056,98.473846 223.571793,96.728378 
	C241.986435,86.041809 260.336395,75.240814 278.581085,64.267159 
	C281.686829,62.399155 283.358490,63.140598 285.132843,65.718140 
	C291.643372,75.175713 298.396149,84.473305 304.680267,94.078110 
	C311.510254,104.517281 317.811462,115.301521 324.579651,125.782646 
	C326.555908,128.843018 326.650055,130.471863 323.129120,132.310959 
	C317.696198,135.148743 312.543976,138.523911 307.280487,141.666519 
	C309.016724,145.220779 311.028412,148.457138 312.231384,151.970398 
	C315.544067,161.645065 308.598663,169.274475 298.025269,167.293915 
z"/>
<path fill="#F9B5B5" opacity="1.000000" stroke="none" 
	d="
M333.627747,377.479187 
	C334.446716,365.057220 335.337402,353.108459 335.962433,341.145844 
	C336.144714,337.657104 337.231964,336.140533 340.952881,336.038361 
	C352.764557,335.713959 364.572815,335.162598 376.370270,334.487061 
	C379.904388,334.284729 381.161987,335.430908 380.965546,338.970825 
	C380.280853,351.308411 383.005096,349.891052 369.933014,351.131317 
	C363.988464,351.695343 358.064270,352.473694 351.898834,353.181458 
	C351.592773,355.757904 351.306702,358.166382 350.947968,361.186218 
	C356.620453,360.851135 361.894958,360.387451 367.176086,360.292603 
	C369.770782,360.246033 372.631287,358.561981 373.361908,364.084717 
	C374.543182,373.013275 374.661255,374.010376 365.860046,375.113037 
	C360.920074,375.731934 355.997955,376.493530 350.683228,377.245209 
	C350.465515,379.716614 350.253113,382.127411 350.035095,384.602112 
	C357.934570,384.602112 365.550079,384.830811 373.141968,384.507050 
	C377.025269,384.341461 378.433960,385.324280 378.417755,389.396301 
	C378.373474,400.519836 378.542938,400.571198 367.338562,401.285889 
	C357.704926,401.900391 348.053680,402.259949 338.428772,402.980164 
	C334.450348,403.277863 332.604095,402.368286 332.941559,397.906342 
	C333.443146,391.274658 333.406036,384.602234 333.627747,377.479187 
z"/>
<path fill="#F9B5B5" opacity="1.000000" stroke="none" 
	d="
M173.451569,361.439880 
	C174.310471,353.706146 175.213669,346.438293 175.828857,339.146149 
	C176.057175,336.439758 177.025253,335.261322 179.780472,335.323975 
	C193.869934,335.644287 192.510605,333.132172 191.339615,347.127289 
	C190.465576,357.573456 189.619141,368.031738 189.194946,378.502228 
	C188.923553,385.201294 192.481033,388.200806 197.518936,385.631104 
	C199.611511,384.563690 201.645615,381.482910 201.929642,379.105469 
	C203.013596,370.032623 203.392578,360.874573 203.996597,351.745789 
	C204.282288,347.428070 204.583908,343.106934 204.681503,338.782898 
	C204.740311,336.177979 205.930511,335.296234 208.387177,335.329010 
	C223.091522,335.525360 221.018356,333.522919 220.460144,347.063507 
	C220.014893,357.864044 220.079605,368.721344 218.940140,379.449585 
	C216.966537,398.031464 200.535431,407.922180 182.808975,401.716400 
	C176.072479,399.358063 173.407791,393.784637 173.137589,387.325165 
	C172.783798,378.867004 173.261505,370.374084 173.451569,361.439880 
z"/>
<path fill="#FBB6B6" opacity="1.000000" stroke="none" 
	d="
M271.981750,383.420166 
	C271.964539,385.706818 272.003113,387.539337 271.920197,389.366333 
	C271.442078,399.900543 273.809845,398.110840 262.474426,400.639893 
	C255.881088,402.110931 248.978333,402.893982 242.229004,402.812347 
	C230.475113,402.670197 225.760483,395.338074 230.886108,384.807892 
	C234.493698,377.396362 239.595428,370.706940 244.095322,363.737244 
	C246.323868,360.285583 248.699783,356.929108 251.496582,352.811768 
	C245.582504,354.029388 240.535736,354.930359 235.564102,356.140015 
	C232.192688,356.960327 231.141418,355.912750 231.085449,352.497772 
	C230.862152,338.872955 230.773132,338.850372 244.216782,336.826782 
	C249.803345,335.985840 255.388870,335.004395 261.012085,334.581635 
	C265.836823,334.218903 271.010437,334.241791 273.840271,339.215637 
	C276.569916,344.013397 274.735962,348.535278 271.938202,352.742218 
	C264.960510,363.234314 257.976349,373.722137 251.498672,385.516052 
	C256.615936,384.216705 261.733032,382.916809 266.850494,381.618317 
	C268.807770,381.121704 271.080780,379.427277 271.981750,383.420166 
z"/>
<path fill="#FAB6B5" opacity="1.000000" stroke="none" 
	d="
M115.361771,397.121460 
	C116.225906,379.381866 117.173439,362.093719 117.788872,344.793732 
	C117.926514,340.924652 118.994423,339.198761 123.013382,338.701294 
	C128.611374,338.008331 134.102402,336.493347 139.670624,335.507782 
	C147.843079,334.061310 154.965576,335.675781 159.730820,343.166473 
	C164.310135,350.364899 164.085602,363.140961 160.262848,369.485596 
	C154.869217,378.437347 145.931427,380.522491 136.944641,382.807587 
	C135.516449,383.170715 134.030441,383.306396 132.156372,383.615662 
	C131.807068,389.954590 131.463623,396.187408 131.088974,402.986450 
	C126.395630,402.986450 122.096321,403.167450 117.819931,402.932007 
	C114.064407,402.725250 115.480133,399.685333 115.361771,397.121460 
M137.342926,366.977783 
	C139.573303,365.914154 141.998947,365.128204 143.991791,363.726807 
	C147.688797,361.126984 147.803345,357.459991 146.254089,353.533875 
	C144.719315,349.644318 141.624176,350.534271 138.688644,351.062653 
	C137.088730,351.350647 135.523102,351.829193 133.661667,352.291382 
	C133.368500,357.372833 133.085236,362.282410 132.780151,367.570190 
	C134.373657,367.375519 135.466248,367.242035 137.342926,366.977783 
M118.651955,391.994415 
	C116.747604,399.410828 116.904068,400.111359 120.658821,400.564789 
	C120.658821,395.052002 120.658821,389.552155 120.658821,384.052277 
	C120.489677,384.033966 120.320526,384.015625 120.151382,383.997314 
	C119.702271,386.392303 119.253159,388.787292 118.651955,391.994415 
z"/>
<path fill="#FAB6B5" opacity="1.000000" stroke="none" 
	d="
M301.186646,377.256073 
	C301.162994,379.344788 301.162994,380.972504 301.162994,383.003540 
	C309.118805,383.003540 316.882538,383.003540 325.013397,383.003540 
	C325.013397,389.117188 325.013397,394.821442 325.013397,401.029877 
	C311.937561,401.695007 299.332031,402.322083 286.728485,402.986755 
	C283.371033,403.163788 283.512482,400.974182 283.617432,398.675293 
	C284.210327,385.691833 284.773499,372.707031 285.355988,359.723114 
	C285.662140,352.898499 286.099426,346.077301 286.256958,339.249481 
	C286.337524,335.758820 287.399841,334.262878 291.259674,334.383148 
	C303.334076,334.759613 303.408142,334.612549 302.857147,346.855927 
	C302.407837,356.840149 301.766510,366.815704 301.186646,377.256073 
z"/>
<path fill="#0D1F3B" opacity="1.000000" stroke="none" 
	d="
M136.950882,367.043152 
	C135.466248,367.242035 134.373657,367.375519 132.780151,367.570190 
	C133.085236,362.282410 133.368500,357.372833 133.661667,352.291382 
	C135.523102,351.829193 137.088730,351.350647 138.688644,351.062653 
	C141.624176,350.534271 144.719315,349.644318 146.254089,353.533875 
	C147.803345,357.459991 147.688797,361.126984 143.991791,363.726807 
	C141.998947,365.128204 139.573303,365.914154 136.950882,367.043152 
z"/>
<path fill="#383B52" opacity="1.000000" stroke="none" 
	d="
M118.727997,391.588348 
	C119.253159,388.787292 119.702271,386.392303 120.151382,383.997314 
	C120.320526,384.015625 120.489677,384.033966 120.658821,384.052277 
	C120.658821,389.552155 120.658821,395.052002 120.658821,400.564789 
	C116.904068,400.111359 116.747604,399.410828 118.727997,391.588348 
z"/>
</svg>